<?xml version="1.0" encoding="utf-8"?>
<svg width="24px" height="24px" viewBox="0 0 24 24" version="1.1" xmlns:xlink="http://www.w3.org/1999/xlink" xmlns="http://www.w3.org/2000/svg">
  <desc>Created with Lunacy</desc>
  <defs>
    <rect width="24" height="24" id="artboard_1" />
    <clipPath id="clip_1">
      <use xlink:href="#artboard_1" clip-rule="evenodd" />
    </clipPath>
  </defs>
  <g id="Pixelbook" clip-path="url(#clip_1)">
    <use xlink:href="#artboard_1" stroke="none" fill="#FFFFFF" fill-opacity="0" />
    <path d="M0 0L24 0L24 24L0 24L0 0Z" id="Rectangle" fill="#D3D3D3" fill-opacity="0" stroke="none" />
    <g id="Group" transform="translate(2 2)">
      <path d="M0.999004 3.41289e-07L4.58407 1.56606e-06Q4.68247 1.59967e-06 4.77897 0.0191971Q4.87547 0.0383927 4.96637 0.076046Q5.05728 0.113699 5.13909 0.168364Q5.2209 0.223028 5.29047 0.292602Q5.36005 0.362176 5.41471 0.443987Q5.46937 0.525798 5.50703 0.616701Q5.54468 0.707604 5.56388 0.804106Q5.58307 0.900609 5.58307 0.999002L5.58307 20.2167Q5.58307 20.3151 5.56387 20.4116Q5.54468 20.5081 5.50702 20.599Q5.46937 20.6899 5.41471 20.7717Q5.36004 20.8535 5.29047 20.9231Q5.22089 20.9926 5.13908 21.0473Q5.05727 21.102 4.96637 21.1396Q4.87546 21.1773 4.77896 21.1965Q4.68246 21.2157 4.58407 21.2157L0.999 21.2157Q0.900607 21.2157 0.804105 21.1965Q0.707603 21.1773 0.616699 21.1396Q0.525796 21.102 0.443985 21.0473Q0.362175 20.9926 0.2926 20.9231Q0.223026 20.8535 0.168362 20.7717Q0.113698 20.6899 0.0760445 20.599Q0.0383912 20.5081 0.0191957 20.4116Q1.61934e-07 20.3151 1.79626e-07 20.2167L3.63507e-06 0.999Q3.65276e-06 0.900607 0.0191992 0.804105Q0.0383947 0.707603 0.0760481 0.6167Q0.113701 0.525796 0.168366 0.443986Q0.22303 0.362175 0.292604 0.292601Q0.362178 0.223026 0.443989 0.168362Q0.5258 0.113698 0.616703 0.0760446Q0.707606 0.0383913 0.804109 0.0191958Q0.900611 3.07675e-07 0.999004 3.41289e-07L0.999004 3.41289e-07Z" transform="matrix(0.7193403 0.6946587 -0.6946587 0.7193403 14.73764 2.384186E-06)" id="Rectangle-3" fill="#000000" stroke="none" />
      <path d="M0.999 0L4.58407 0Q4.68246 0 4.77896 0.0191955Q4.87546 0.038391 4.96637 0.0760443Q5.05727 0.113698 5.13908 0.168362Q5.22089 0.223026 5.29047 0.2926Q5.36004 0.362175 5.4147 0.443985Q5.46937 0.525796 5.50702 0.616699Q5.54467 0.707602 5.56387 0.804105Q5.58307 0.900607 5.58307 0.999L5.58307 20.2167Q5.58307 20.315 5.56387 20.4115Q5.54467 20.508 5.50702 20.599Q5.46937 20.6899 5.4147 20.7717Q5.36004 20.8535 5.29047 20.9231Q5.22089 20.9926 5.13908 21.0473Q5.05727 21.102 4.96637 21.1396Q4.87546 21.1773 4.77896 21.1965Q4.68246 21.2157 4.58407 21.2157L0.999 21.2157Q0.900607 21.2157 0.804105 21.1965Q0.707603 21.1773 0.616699 21.1396Q0.525796 21.102 0.443986 21.0473Q0.362175 20.9926 0.292601 20.9231Q0.223026 20.8535 0.168362 20.7717Q0.113698 20.6899 0.0760446 20.599Q0.0383912 20.5081 0.0191957 20.4115Q2.28298e-07 20.315 2.27192e-07 20.2167L1.12266e-08 0.999Q1.01209e-08 0.900607 0.0191955 0.804105Q0.038391 0.707602 0.0760443 0.616699Q0.113698 0.525796 0.168362 0.443985Q0.223026 0.362175 0.2926 0.2926Q0.362175 0.223026 0.443985 0.168362Q0.525796 0.113698 0.616699 0.0760443Q0.707602 0.038391 0.804105 0.0191955Q0.900607 0 0.999 0L0.999 0Z" transform="matrix(0.6946588 -0.7193401 0.7193401 0.6946588 1.883507E-05 4.016125)" id="Rectangle-2" fill="#000000" stroke="none" />
    </g>
  </g>
</svg>